<svg width="68" height="68" viewBox="0 0 68 68" fill="none" xmlns="http://www.w3.org/2000/svg">
<rect width="68" height="68" rx="34" fill="#021122"/>
<g clip-path="url(#clip0_200_211)">
<path d="M54.7499 17.5698C51.7582 15.8668 48.4673 14.754 45.0559 14.2918C44.5395 13.2979 43.8207 12.4232 42.9459 11.7238C42.0038 10.9746 40.9036 10.4497 39.7286 10.1888C38.5536 9.92787 37.3346 9.93779 36.1639 10.2178C33.6619 10.8491 31.2352 11.7483 28.9259 12.8998C27.2866 12.1203 25.4555 11.8359 23.6569 12.0814C21.8584 12.3269 20.1705 13.0916 18.7999 14.2818C18.0659 14.9118 17.3279 15.5698 16.5999 16.2478C15.8359 16.9658 15.0579 17.7818 14.2819 18.6678C13.3096 19.7794 12.6157 21.1064 12.2575 22.5392C11.8993 23.9719 11.8871 25.4694 12.2219 26.9078C12.3765 27.5868 12.6052 28.2467 12.9039 28.8758C11.7447 31.2015 10.8381 33.6448 10.1999 36.1638C9.91874 37.3343 9.90822 38.5536 10.1692 39.7288C10.4302 40.904 10.9557 42.0043 11.7059 42.9458C12.4126 43.8297 13.2988 44.5537 14.3059 45.0698C14.7694 48.4761 15.8814 51.7621 17.5819 54.7498C18.2417 55.935 19.2644 56.8772 20.4997 57.4378C21.7349 57.9983 23.1175 58.1477 24.4439 57.8638C25.816 57.592 27.0643 56.8861 28.0043 55.8503C28.9443 54.8145 29.5262 53.5037 29.6639 52.1118C30.0372 49.537 30.714 47.0155 31.6799 44.5998C31.6799 44.5998 32.7699 43.9278 33.2679 43.5218C34.467 42.516 35.3181 41.1575 35.6999 39.6398C36.6246 39.3337 37.4654 38.8167 38.1559 38.1298C38.8285 37.4452 39.3373 36.6172 39.6439 35.7078C41.1565 35.3241 42.5098 34.4739 43.5119 33.2778C43.9119 32.7798 44.5919 31.6878 44.5919 31.6878C47.0024 30.6959 49.5294 30.0151 52.1119 29.6618C53.5039 29.5241 54.8146 28.9422 55.8504 28.0022C56.8862 27.0622 57.5922 25.8139 57.8639 24.4418C58.1524 23.1138 58.0053 21.7282 57.4444 20.4903C56.8835 19.2525 55.9386 18.2284 54.7499 17.5698V17.5698ZM25.6779 51.6658C25.6298 52.2174 25.4033 52.7383 25.0327 53.1497C24.6621 53.5611 24.1675 53.8405 23.6239 53.9458C23.1237 54.0596 22.5999 54.0058 22.1333 53.7925C21.6667 53.5793 21.2832 53.2185 21.0419 52.7658C19.8391 50.6592 18.9771 48.3757 18.4879 45.9998H26.2879C26.5059 45.9998 26.7179 45.9558 26.9339 45.9438C26.3619 47.7098 25.6779 51.6578 25.6779 51.6658ZM30.7379 40.4138C29.4822 41.4376 27.9122 41.9977 26.2919 41.9998H17.9999C17.3915 42.0011 16.7909 41.8636 16.2436 41.5978C15.6964 41.332 15.217 40.9448 14.8419 40.4658C14.4678 39.997 14.2055 39.4492 14.0748 38.8639C13.9442 38.2785 13.9486 37.6711 14.0879 37.0878C14.4883 35.4731 15.0235 33.8949 15.6879 32.3698C16.3054 32.853 16.9814 33.2562 17.6999 33.5698L31.0539 39.4178C31.1779 39.4758 31.3099 39.4978 31.4359 39.5458C31.257 39.8745 31.0206 40.1684 30.7379 40.4138V40.4138ZM35.3079 35.3098C34.9738 35.6486 34.5428 35.8756 34.0743 35.9594C33.6058 36.0432 33.1229 35.9798 32.6919 35.7778L19.3059 29.9158C18.5078 29.5661 17.8042 29.0318 17.2531 28.3568C16.7019 27.6819 16.319 26.8857 16.1359 26.0338C15.9418 25.208 15.9469 24.3479 16.1506 23.5244C16.3544 22.7009 16.7511 21.9377 17.3079 21.2978C17.9999 20.5098 18.6839 19.7898 19.3539 19.1598C20.0239 18.5298 20.7179 17.9098 21.4079 17.3198C22.0447 16.7656 22.8032 16.3693 23.6218 16.1631C24.4404 15.957 25.2961 15.9467 26.1194 16.1331C26.9427 16.3196 27.7105 16.6975 28.3604 17.2362C29.0103 17.775 29.524 18.4593 29.8599 19.2338L35.7879 32.6138C35.9863 33.0597 36.0465 33.5548 35.961 34.0353C35.8754 34.5158 35.648 34.9597 35.3079 35.3098ZM41.9999 26.2918C41.9986 27.9118 41.4392 29.4819 40.4159 30.7378C40.1822 31.0085 39.9042 31.2378 39.5939 31.4158C39.5419 31.2758 39.5039 31.1318 39.4439 30.9938L33.5179 17.6158C33.2184 16.9366 32.8412 16.2943 32.3939 15.7018C33.9115 15.0391 35.4816 14.5039 37.0879 14.1018C37.6713 13.9622 38.2787 13.9576 38.8641 14.0882C39.4495 14.2189 39.9973 14.4814 40.4659 14.8558C40.946 15.2317 41.3338 15.7124 41.5997 16.2611C41.8656 16.8098 42.0025 17.412 41.9999 18.0218V26.2918ZM53.9459 23.6238C53.8407 24.1674 53.5612 24.6619 53.1498 25.0325C52.7385 25.4031 52.2175 25.6296 51.6659 25.6778C51.6659 25.6778 47.7099 26.3618 45.9439 26.9378C45.9579 26.7218 45.9999 26.5098 45.9999 26.2918V18.4918C48.3758 18.981 50.6594 19.843 52.7659 21.0458C53.2172 21.2877 53.5768 21.6706 53.7899 22.1361C54.003 22.6017 54.0578 23.1242 53.9459 23.6238V23.6238Z" fill="white"/>
</g>
<defs>
<clipPath id="clip0_200_211">
<rect width="48" height="48" fill="white" transform="translate(10 10)"/>
</clipPath>
</defs>
</svg>
