<svg width="32" height="32" viewBox="0 0 32 32" fill="none" xmlns="http://www.w3.org/2000/svg">
<g clip-path="url(#clip0_99_630)">
<path d="M29.8333 5.04652C27.8388 3.9112 25.6448 3.16933 23.3706 2.86119C23.0263 2.19862 22.5472 1.61545 21.964 1.14919C21.3359 0.649759 20.6024 0.299815 19.8191 0.125866C19.0357 -0.0480834 18.223 -0.0414761 17.4426 0.145187C15.7746 0.566085 14.1568 1.16555 12.6173 1.93319C11.5244 1.41356 10.3037 1.22396 9.10462 1.38761C7.90559 1.55125 6.78032 2.06104 5.86662 2.85452C5.37729 3.27452 4.88529 3.71319 4.39996 4.16519C3.89062 4.64385 3.37196 5.18785 2.85462 5.77852C2.20641 6.51961 1.7438 7.40427 1.50501 8.35945C1.26621 9.31463 1.25808 10.3129 1.48129 11.2719C1.58433 11.7245 1.7368 12.1645 1.93596 12.5839C1.16311 14.1343 0.558762 15.7632 0.133289 17.4425C-0.0541749 18.2229 -0.061184 19.0357 0.112795 19.8192C0.286774 20.6027 0.637157 21.3362 1.13729 21.9639C1.60841 22.5531 2.19919 23.0358 2.87062 23.3799C3.17958 25.6508 3.92095 27.8414 5.05462 29.8332C5.49447 30.6233 6.17629 31.2515 6.99979 31.6252C7.82329 31.9989 8.74499 32.0984 9.62929 31.9092C10.544 31.728 11.3762 31.2574 12.0029 30.5669C12.6296 29.8763 13.0175 29.0025 13.1093 28.0745C13.3582 26.358 13.8093 24.677 14.4533 23.0665C14.4533 23.0665 15.18 22.6185 15.512 22.3479C16.3113 21.6774 16.8787 20.7717 17.1333 19.7599C17.7497 19.5558 18.3103 19.2111 18.7706 18.7532C19.219 18.2968 19.5582 17.7448 19.7626 17.1385C20.771 16.8827 21.6732 16.3159 22.3413 15.5185C22.608 15.1865 23.0613 14.4585 23.0613 14.4585C24.6683 13.7972 26.3529 13.3434 28.0746 13.1079C29.0026 13.016 29.8764 12.6281 30.567 12.0015C31.2575 11.3748 31.7281 10.5426 31.9093 9.62785C32.1016 8.74252 32.0035 7.81878 31.6296 6.99356C31.2557 6.16835 30.6258 5.4856 29.8333 5.04652ZM10.452 27.7772C10.4199 28.1449 10.2689 28.4922 10.0218 28.7665C9.77471 29.0407 9.44503 29.227 9.08262 29.2972C8.74914 29.3731 8.39996 29.3372 8.08889 29.195C7.77783 29.0529 7.52216 28.8123 7.36129 28.5105C6.55942 27.1062 5.98476 25.5838 5.65862 23.9999H10.8586C11.004 23.9999 11.1453 23.9705 11.2893 23.9625C10.908 25.1399 10.452 27.7719 10.452 27.7772ZM13.8253 20.2759C12.9881 20.9584 11.9414 21.3318 10.8613 21.3332H5.33329C4.9277 21.3341 4.52725 21.2424 4.16243 21.0652C3.7976 20.888 3.478 20.6299 3.22796 20.3105C2.97854 19.998 2.80364 19.6328 2.71654 19.2426C2.62944 18.8524 2.63243 18.4474 2.72529 18.0585C2.99222 16.9821 3.34903 15.9299 3.79196 14.9132C4.20358 15.2353 4.65426 15.5041 5.13329 15.7132L14.036 19.6119C14.1186 19.6505 14.2066 19.6652 14.2906 19.6972C14.1713 19.9163 14.0137 20.1123 13.8253 20.2759ZM16.872 16.8732C16.6492 17.0991 16.3618 17.2504 16.0495 17.3063C15.7372 17.3621 15.4152 17.3198 15.128 17.1852L6.20396 13.2772C5.67187 13.0441 5.2028 12.6878 4.83537 12.2379C4.46795 11.7879 4.21269 11.2571 4.09062 10.6892C3.96122 10.1387 3.96458 9.56525 4.10043 9.01627C4.23628 8.4673 4.50073 7.9585 4.87196 7.53185C5.33329 7.00652 5.78929 6.52652 6.23596 6.10652C6.68262 5.68652 7.14529 5.27319 7.60529 4.87985C8.02981 4.51039 8.53545 4.24621 9.08118 4.10876C9.62692 3.97131 10.1974 3.96445 10.7463 4.08875C11.2951 4.21304 11.807 4.46499 12.2403 4.82415C12.6735 5.1833 13.016 5.63955 13.24 6.15585L17.192 15.0759C17.3242 15.3731 17.3644 15.7032 17.3073 16.0235C17.2503 16.3439 17.0987 16.6398 16.872 16.8732ZM21.3333 10.8612C21.3324 11.9412 20.9595 12.9879 20.2773 13.8252C20.1214 14.0057 19.9362 14.1585 19.7293 14.2772C19.6946 14.1839 19.6693 14.0879 19.6293 13.9959L15.6786 5.07719C15.4789 4.62437 15.2275 4.19619 14.9293 3.80119C15.941 3.35938 16.9877 3.0026 18.0586 2.73452C18.4475 2.64146 18.8525 2.63837 19.2427 2.72548C19.633 2.81259 19.9982 2.9876 20.3106 3.23719C20.6307 3.48779 20.8892 3.80824 21.0665 4.17406C21.2437 4.53987 21.335 4.94136 21.3333 5.34785V10.8612ZM29.2973 9.08252C29.2271 9.44492 29.0408 9.77461 28.7666 10.0217C28.4923 10.2687 28.145 10.4198 27.7773 10.4519C27.7773 10.4519 25.14 10.9079 23.9626 11.2919C23.972 11.1479 24 11.0065 24 10.8612V5.66119C25.5839 5.98733 27.1063 6.56199 28.5106 7.36385C28.8115 7.5251 29.0512 7.78041 29.1933 8.09076C29.3353 8.40112 29.3719 8.74945 29.2973 9.08252Z" fill="#021122"/>
</g>
<defs>
<clipPath id="clip0_99_630">
<rect width="32" height="32" fill="white"/>
</clipPath>
</defs>
</svg>
